<svg xmlns="http://www.w3.org/2000/svg" viewBox="53.76 280.45 16.2 16.2" width="512" height="512"><path fill-rule="evenodd" d="M53.795 288.519a8.055 8.055 180 0 0 16.11 0 8.055 8.055 180 0 0-16.11 0m9.134-3.223a1.88 1.88 180 0 0 3.76 0 1.88 1.88 180 0 0-3.76 0m-5.779-1.47a1.88 1.88 180 0 0 3.76 0 1.88 1.88 180 0 0-3.76 0m7.928.804a.7.7 180 0 0 1.4 0 .7.7 180 0 0-1.4 0m-7.751-.182a.7.7 180 0 0 1.4 0 .7.7 180 0 0-1.4 0M57 289.7c.7 3.1 4.4 3 5.7 2.9l.7 1.25a.32.32 170 1 0 2.5-1.55l-.55-.85c.15-.2.55-.35 1.15-1.55a.24.24 170 1 0-.9-.4c-.8 3.1-7 2.8-7.68 0a.25.25 200 1 0-.92.2"/></svg>