<svg viewBox="0 -140 980 980"><path d="m542 766-51-152-53 152q-7 22 3 42t31 28q30 10 56-11t14-59zM73 403l153-53-153-52q-21-8-42 3T3 333q-10 30 12 56t58 14zM438-66l53 152 51-152q7-21-3-42t-31-28q-30-10-56 12t-14 58zm469 364-153 52 153 53q21 7 42-3t28-32q10-30-12-57t-58-13zM232 681l71-145-145 72q-21 10-28 31t3 42q16 32 50 30t49-30zM158 93l145 71-71-145Q222-2 201-9t-43 3q-31 16-30 50t30 49zm590-74-71 145 145-71q21-10 28-32t-3-42q-16-31-50-30t-49 30zm74 589-145-72 71 145q10 22 31 29t43-4q31-16 30-50t-30-48zM491 115q-97 0-166 70t-69 165 69 166 166 69 165-69 68-166-68-165-165-70zm0 365q-54 0-93-38t-39-92 39-92 93-38 92 38 38 92-38 92-92 38z"/></svg>