<svg xmlns="http://www.w3.org/2000/svg" viewBox="0 0 512 512">
  <path fill="#fdb62f" d="M 256 0 Q 335,2 318,86 L 283,182  Q 256,230 229,182 L 194,86 Q 177,2 256,0 z" />
  <path fill="#3ab54b" d="M 256 0 Q 335,2 318,86 L 283,182  Q 256,230 229,182 L 194,86 Q 177,2 256,0 z" transform="rotate(40 256 256)" />
  <path fill="#01a99d" d="M 256 0 Q 335,2 318,86 L 283,182  Q 256,230 229,182 L 194,86 Q 177,2 256,0 z" transform="rotate(80 256 256)" />
  <path fill="#0271bc" d="M 256 0 Q 335,2 318,86 L 283,182  Q 256,230 229,182 L 194,86 Q 177,2 256,0 z" transform="rotate(120 256 256)" />
  <path fill="#662d91" d="M 256 0 Q 335,2 318,86 L 283,182  Q 256,230 229,182 L 194,86 Q 177,2 256,0 z" transform="rotate(160 256 256)" />
  <path fill="#c0272d" d="M 256 0 Q 335,2 318,86 L 283,182  Q 256,230 229,182 L 194,86 Q 177,2 256,0 z" transform="rotate(200 256 256)" />
  <path fill="#ff421d" d="M 256 0 Q 335,2 318,86 L 283,182  Q 256,230 229,182 L 194,86 Q 177,2 256,0 z" transform="rotate(240 256 256)" />
  <path fill="#e86110" d="M 256 0 Q 335,2 318,86 L 283,182  Q 256,230 229,182 L 194,86 Q 177,2 256,0 z" transform="rotate(280 256 256)" />
  <path fill="#f5921e" d="M 256 0 Q 335,2 318,86 L 283,182  Q 256,230 229,182 L 194,86 Q 177,2 256,0 z" transform="rotate(320 256 256)" />
</svg>
