<svg xmlns="http://www.w3.org/2000/svg" viewBox="0 0 490 490" width="256" height="256"><path d="M470.025 244.991c12.987-16.198 18.582-37.435 14.796-58.317-3.962-21.851-17.372-40.168-36.264-50.546 6.181-21.546 2.122-45.188-11.654-63.562-13.628-18.171-35.332-29.02-58.059-29.02-3.224 0-6.431.215-9.607.642C358.08 17.889 332.001 0 302.501 0c-23.396 0-44.237 11.137-57.502 28.389C231.734 11.137 210.893 0 187.497 0c-29.513 0-55.602 17.905-66.751 44.224a72.658 72.658 0 0 0-9.641-.64c-23.068 0-44.221 10.571-58.034 29.006-13.766 18.374-17.82 42.014-11.641 63.557-18.893 10.377-32.301 28.698-36.263 50.562-3.777 20.877 1.822 42.106 14.806 58.3C6.986 261.207 1.39 282.443 5.177 303.327c3.962 21.851 17.372 40.167 36.263 50.544-6.181 21.547-2.122 45.189 11.654 63.563 13.629 18.171 35.333 29.02 58.059 29.02 3.223 0 6.43-.215 9.606-.642 11.158 26.3 37.236 44.188 66.738 44.188 23.395 0 44.236-11.137 57.502-28.389C258.264 478.863 279.105 490 302.501 490c29.514 0 55.603-17.905 66.751-44.224 3.184.426 6.401.64 9.641.64 23.068 0 44.223-10.572 58.035-29.006 13.765-18.374 17.819-42.014 11.64-63.556 18.894-10.378 32.301-28.699 36.265-50.563 3.775-20.877-1.824-42.106-14.808-58.3zM229.999 417.5c0 23.435-19.067 42.5-42.502 42.5-20.303 0-37.839-14.45-41.697-34.359l-.204-1.052a42.983 42.983 0 0 1-.597-7.089c0-6.921 1.652-13.585 4.753-19.555 11.278 6.928 24.273 10.643 37.843 10.642l-.002-30c-11.353.001-22.026-4.42-30.054-12.448-8.026-8.026-12.447-18.697-12.448-30.049l-30 .004c.001 14.705 4.361 28.736 12.45 40.635-7.921 11.596-12.275 25.229-12.512 39.542a42.04 42.04 0 0 1-3.875.183c-13.533 0-25.947-6.203-34.058-17.018-9.982-13.313-11.259-31.352-3.253-45.955l3.562-6.497-6.065-13.821-6.733-1.972c-15.561-4.557-27.021-17.284-29.91-33.216-2.529-13.949 2.101-28.156 12.13-37.975h69.731c2.855 13.641 9.588 26.178 19.671 36.263 13.153 13.105 31.28 21.237 51.27 21.237h42.5v100zm0-130h-42.5c-22.631 0-41.183-17.782-42.429-40.108-.004-.074-.012-.147-.016-.222a43.365 43.365 0 0 1-.055-2.169c0-11.353 4.422-22.025 12.449-30.051l-21.212-21.215c-10.086 10.085-16.82 22.623-19.677 36.265h-69.75c-10.017-9.816-14.643-24.012-12.123-37.946 2.889-15.94 14.35-28.672 29.91-33.227l6.735-1.971 6.063-13.821-3.562-6.496c-8.005-14.603-6.731-32.644 3.246-45.96 8.093-10.801 20.495-16.995 34.025-16.995 1.316 0 2.625.065 3.925.185.244 14.299 4.597 27.917 12.511 39.503-8.089 11.899-12.449 25.929-12.45 40.635l30 .004c.001-11.352 4.422-22.022 12.448-30.049 8.028-8.027 18.7-12.448 30.051-12.448.003 0 .005-30 .005-30-13.573 0-26.565 3.715-37.843 10.642-3.1-5.971-4.751-12.635-4.751-19.556 0-2.373.206-4.744.593-7.063l.209-1.077C149.658 44.45 167.195 30 187.497 30c23.435 0 42.502 19.065 42.502 42.5v215zm30-214.998c0-23.437 19.066-42.502 42.502-42.502 20.303 0 37.839 14.45 41.698 34.36l.201 1.039a43.02 43.02 0 0 1 .599 7.101c0 6.921-1.651 13.585-4.753 19.555-11.278-6.927-24.273-10.643-37.843-10.642l.002 30c11.353-.001 22.025 4.42 30.054 12.449 8.026 8.024 12.446 18.696 12.448 30.048l30-.004c-.002-14.706-4.362-28.737-12.45-40.635 7.921-11.596 12.275-25.229 12.512-39.541a42.045 42.045 0 0 1 3.876-.183c13.533 0 25.946 6.203 34.058 17.018 9.981 13.313 11.259 31.352 3.253 45.955l-3.57 6.513 3.015 6.787 3.06 7.019 6.733 1.972c15.561 4.557 27.021 17.284 29.909 33.217 2.53 13.948-2.1 28.156-12.131 37.974h-69.731c-2.855-13.641-9.588-26.178-19.672-36.264-13.154-13.104-31.28-21.236-51.27-21.236h-42.5v-100zm195.312 225.443c-2.89 15.941-14.35 28.673-29.909 33.228l-6.719 1.967-6.072 13.841 3.553 6.48c8.006 14.603 6.731 32.644-3.245 45.96-8.094 10.802-20.495 16.996-34.026 16.995-1.316 0-2.624-.065-3.924-.185-.244-14.298-4.598-27.917-12.511-39.502 8.089-11.899 12.448-25.929 12.451-40.635l-30-.004c-.002 11.352-4.422 22.023-12.449 30.049-8.026 8.027-18.698 12.448-30.05 12.448-.003 0-.005 30-.005 30 13.573 0 26.566-3.715 37.843-10.642 3.101 5.97 4.753 12.634 4.753 19.555 0 2.385-.208 4.768-.599 7.101l-.202 1.041C340.34 445.55 322.803 460 302.501 460c-23.436 0-42.502-19.065-42.502-42.5v-215h42.5c22.631 0 41.183 17.782 42.429 40.108.004.074.012.147.016.222.036.719.055 1.442.055 2.169 0 11.353-4.421 22.025-12.449 30.051l21.211 21.215c10.086-10.085 16.822-22.623 19.678-36.265h69.75c10.016 9.816 14.643 24.012 12.122 37.945z"/></svg>