<svg xmlns="http://www.w3.org/2000/svg" viewBox="8 8 240 240" width="256" height="256"><path fill="pink" d="M240 132a48.02 48.02 0 0 1-32 45.269v-.002V184a40 40 0 0 1-80 0 40 40 0 0 1-80 0v-6.733.002a48.02 48.02 0 0 1-.001-90.537L48 72a40 40 0 0 1 80 0 40 40 0 0 1 80 0l.001 14.732A48.02 48.02 0 0 1 240 132z"/><path d="M248 132a56.121 56.121 0 0 0-32-50.61V72a47.983 47.983 0 0 0-88-26.493A47.983 47.983 0 0 0 40 72v9.39a56.003 56.003 0 0 0 0 101.196V184a47.983 47.983 0 0 0 88 26.493A47.983 47.983 0 0 0 216 184v-1.414A56.067 56.067 0 0 0 248 132zM88 216a32.043 32.043 0 0 1-31.812-28.557A56.174 56.174 0 0 0 64 188h8a8 8 0 0 0 0-16h-8a40.008 40.008 0 0 1-13.334-77.726 8 8 0 0 0 5.333-7.542L56 72a32 32 0 0 1 64 0v76.261A47.803 47.803 0 0 0 88 136a8 8 0 0 0 0 16 32 32 0 0 1 0 64zm104-44h-8a8 8 0 0 0 0 16h8a56.174 56.174 0 0 0 7.812-.557A31.999 31.999 0 1 1 168 152a8 8 0 0 0 0-16 47.803 47.803 0 0 0-32 12.261V72a32 32 0 1 1 64 0l.001 14.732a8 8 0 0 0 5.333 7.542A40.008 40.008 0 0 1 192 172zM60 128a8 8 0 0 1 0-16 20.023 20.023 0 0 0 20-20v-8a8 8 0 0 1 16 0v8a36.04 36.04 0 0 1-36 36zm144-8a8 8 0 0 1-8 8 36.04 36.04 0 0 1-36-36v-8a8 8 0 0 1 16 0v8a20.023 20.023 0 0 0 20 20 8 8 0 0 1 8 8z"/></svg>