<svg xmlns="http://www.w3.org/2000/svg" viewBox="0 0 512 512" width="256" height="256"><path fill="#fdb62f" d="M256 0q79 2 62 86l-35 96q-27 48-54 0l-35-96Q177 2 256 0z"/><path fill="#3ab54b" d="M256 0q79 2 62 86l-35 96q-27 48-54 0l-35-96Q177 2 256 0z" transform="rotate(40 256 256)"/><path fill="#01a99d" d="M256 0q79 2 62 86l-35 96q-27 48-54 0l-35-96Q177 2 256 0z" transform="rotate(80 256 256)"/><path fill="#0271bc" d="M256 0q79 2 62 86l-35 96q-27 48-54 0l-35-96Q177 2 256 0z" transform="rotate(120 256 256)"/><path fill="#662d91" d="M256 0q79 2 62 86l-35 96q-27 48-54 0l-35-96Q177 2 256 0z" transform="rotate(160 256 256)"/><path fill="#c0272d" d="M256 0q79 2 62 86l-35 96q-27 48-54 0l-35-96Q177 2 256 0z" transform="rotate(200 256 256)"/><path fill="#ff421d" d="M256 0q79 2 62 86l-35 96q-27 48-54 0l-35-96Q177 2 256 0z" transform="rotate(240 256 256)"/><path fill="#e86110" d="M256 0q79 2 62 86l-35 96q-27 48-54 0l-35-96Q177 2 256 0z" transform="rotate(280 256 256)"/><path fill="#f5921e" d="M256 0q79 2 62 86l-35 96q-27 48-54 0l-35-96Q177 2 256 0z" transform="rotate(320 256 256)"/></svg>