<svg xmlns="http://www.w3.org/2000/svg" viewBox="0 0 1024 1024" width="256" height="256"><path d="M840.533 490.667l-17.066-85.334-268.8 55.467V170.667h-85.334v262.4l-296.533-192-46.933 72.533 324.266 209.067-249.6 326.4 68.267 51.2 241.067-315.734 179.2 270.934 72.533-46.934-179.2-266.666z" fill="#adadad"/><path d="M362.667 512a149.333 149.333 0 1 0 298.666 0 149.333 149.333 0 1 0-298.666 0z" fill="#e86110"/><path d="M405.333 170.667a106.667 106.667 0 1 0 213.334 0 106.667 106.667 0 1 0-213.334 0z" fill="#3ab54b"/><path d="M725.333 448a106.667 106.667 0 1 0 213.334 0 106.667 106.667 0 1 0-213.334 0z" fill="#c0272d"/><path d="M42.667 277.333a106.667 106.667 0 1 0 213.333 0 106.667 106.667 0 1 0-213.333 0z" fill="#00bcd4"/><path d="M128 874.667a106.667 106.667 0 1 0 213.333 0 106.667 106.667 0 1 0-213.333 0z" fill="#f5921e"/><path d="M618.667 832A106.667 106.667 0 1 0 832 832a106.667 106.667 0 1 0-213.333 0z" fill="#3f51b5"/></svg>