<svg xmlns="http://www.w3.org/2000/svg" viewBox="-10 -90 880 880" width="256" height="256"><path d="M843 261v-4Q807 107 693 14T426-79q-81 0-157 31T133 40L61-32Q50-43 36-43T11-32 0-7v250q0 14 11 25t25 11h250q14 0 25-11t10-25-10-25l-77-77q40-36 90-57t105-20q74 0 139 37t104 99q6 10 30 66 4 13 16 13h107q8 0 13-6t5-12zm14 446V457q0-14-10-25t-26-11H571q-14 0-25 11t-10 25 10 25l77 77q-82 77-194 77-75 0-140-37t-104-99q-6-10-29-66-5-13-17-13H28q-7 0-13 6t-5 12v4q36 150 151 243t268 93q81 0 158-31t137-88l72 72q11 11 25 11t26-11 10-25z"/></svg>